<svg width="39" height="39" viewBox="0 0 39 39" fill="none" xmlns="http://www.w3.org/2000/svg">
<path d="M5.06348 3.83556C4.44303 3.83556 3.94006 4.33854 3.94006 4.95898C3.94006 5.57943 4.44303 6.0824 5.06348 6.0824L5.06348 3.83556ZM9.05786 4.95898L10.1477 4.68652C10.0227 4.18641 9.57336 3.83556 9.05786 3.83556V4.95898ZM30.6275 26.8532C31.248 26.8532 31.7509 26.3502 31.7509 25.7298C31.7509 25.1093 31.248 24.6063 30.6275 24.6063V26.8532ZM33.823 8.15449L34.9129 8.42696C34.9968 8.09135 34.9214 7.7358 34.7085 7.46312C34.4956 7.19045 34.169 7.03107 33.823 7.03107V8.15449ZM30.6275 20.9365V22.0599C31.143 22.0599 31.5924 21.7091 31.7174 21.209L30.6275 20.9365ZM5.06348 6.0824H9.05786V3.83556H5.06348L5.06348 6.0824ZM7.96798 5.23145L8.76686 8.42696L10.9466 7.88202L10.1477 4.68652L7.96798 5.23145ZM8.76686 8.42696L11.9624 21.209L14.1421 20.664L10.9466 7.88202L8.76686 8.42696ZM13.0522 19.8131H12.2534V22.0599H13.0522V19.8131ZM12.2534 26.8532H30.6275V24.6063H12.2534V26.8532ZM8.73331 23.3331C8.73331 25.2772 10.3093 26.8532 12.2534 26.8532V24.6063C11.5502 24.6063 10.9802 24.0363 10.9802 23.3331H8.73331ZM12.2534 19.8131C10.3093 19.8131 8.73331 21.3891 8.73331 23.3331H10.9802C10.9802 22.63 11.5502 22.0599 12.2534 22.0599V19.8131ZM9.85673 9.27791H33.823V7.03107H9.85673V9.27791ZM32.7331 7.88202L29.5376 20.664L31.7174 21.209L34.9129 8.42696L32.7331 7.88202ZM30.6275 19.8131H13.0522V22.0599H30.6275V19.8131ZM29.5041 32.1208C29.5041 32.3827 29.2917 32.5951 29.0298 32.5951V34.842C30.5326 34.842 31.7509 33.6236 31.7509 32.1208H29.5041ZM29.0298 32.5951C28.7678 32.5951 28.5554 32.3827 28.5554 32.1208H26.3086C26.3086 33.6236 27.5269 34.842 29.0298 34.842V32.5951ZM28.5554 32.1208C28.5554 31.8588 28.7678 31.6464 29.0298 31.6464V29.3996C27.5269 29.3996 26.3086 30.6179 26.3086 32.1208H28.5554ZM29.0298 31.6464C29.2917 31.6464 29.5041 31.8588 29.5041 32.1208H31.7509C31.7509 30.6179 30.5326 29.3996 29.0298 29.3996V31.6464ZM13.5266 32.1208C13.5266 32.3827 13.3142 32.5951 13.0522 32.5951V34.842C14.5551 34.842 15.7734 33.6236 15.7734 32.1208H13.5266ZM13.0522 32.5951C12.7903 32.5951 12.5779 32.3827 12.5779 32.1208H10.3311C10.3311 33.6236 11.5494 34.842 13.0522 34.842V32.5951ZM12.5779 32.1208C12.5779 31.8588 12.7903 31.6464 13.0522 31.6464V29.3996C11.5494 29.3996 10.3311 30.6179 10.3311 32.1208H12.5779ZM13.0522 31.6464C13.3142 31.6464 13.5266 31.8588 13.5266 32.1208H15.7734C15.7734 30.6179 14.5551 29.3996 13.0522 29.3996V31.6464Z" fill="#F2EDDA"/>
</svg>
