<svg width="43" height="43" viewBox="0 0 43 43" fill="none" xmlns="http://www.w3.org/2000/svg">
<path d="M14.4885 7.22828H37.4229V10.7567H14.4885V7.22828ZM8.31383 11.6387C6.85233 11.6387 5.66755 10.454 5.66755 8.99247C5.66755 7.53097 6.85233 6.34619 8.31383 6.34619C9.77534 6.34619 10.9601 7.53097 10.9601 8.99247C10.9601 10.454 9.77534 11.6387 8.31383 11.6387ZM8.31383 23.988C6.85233 23.988 5.66755 22.8032 5.66755 21.3418C5.66755 19.8803 6.85233 18.6955 8.31383 18.6955C9.77534 18.6955 10.9601 19.8803 10.9601 21.3418C10.9601 22.8032 9.77534 23.988 8.31383 23.988ZM8.31383 36.1609C6.85233 36.1609 5.66755 34.9761 5.66755 33.5146C5.66755 32.0532 6.85233 30.8684 8.31383 30.8684C9.77534 30.8684 10.9601 32.0532 10.9601 33.5146C10.9601 34.9761 9.77534 36.1609 8.31383 36.1609ZM14.4885 19.5776H37.4229V23.106H14.4885V19.5776ZM14.4885 31.9269H37.4229V35.4553H14.4885V31.9269Z" fill="#F2EDDA"/>
</svg>
