<svg width="22" height="22" viewBox="0 0 22 22" fill="none" xmlns="http://www.w3.org/2000/svg">
<path d="M8.5851 9.79193C9.4435 11.3014 10.6986 12.5565 12.2081 13.4149L13.0189 12.2798C13.2885 11.9025 13.7973 11.7859 14.2043 12.0082C15.4939 12.7126 16.919 13.1407 18.4057 13.2584C18.8824 13.2962 19.25 13.694 19.25 14.1722V18.2631C19.25 18.7331 18.8945 19.1269 18.427 19.1749C17.9413 19.2249 17.4512 19.25 16.9583 19.25C9.11129 19.25 2.75 12.8887 2.75 5.04167C2.75 4.54875 2.77514 4.05873 2.82507 3.57295C2.87311 3.10544 3.26695 2.75 3.73693 2.75H7.8278C8.30601 2.75 8.70387 3.11762 8.74161 3.59433C8.85928 5.08097 9.28739 6.50617 9.99185 7.79574C10.2141 8.2027 10.0975 8.71158 9.72024 8.98111L8.5851 9.79193ZM6.2739 9.18977L8.01552 7.94575C7.52168 6.87971 7.18326 5.74918 7.01 4.58333H4.59165C4.58611 4.73579 4.58333 4.88858 4.58333 5.04167C4.58333 11.8762 10.1239 17.4167 16.9583 17.4167C17.1114 17.4167 17.2642 17.4139 17.4167 17.4083V14.99C16.2509 14.8167 15.1203 14.4783 14.0542 13.9845L12.8102 15.7262C12.307 15.5306 11.821 15.3005 11.3551 15.0389L11.3019 15.0086C9.50556 13.9871 8.0129 12.4944 6.99142 10.6981L6.96111 10.6449C6.69945 10.179 6.46941 9.69302 6.2739 9.18977Z" fill="white"/>
</svg>
