<svg width="25" height="33" viewBox="0 0 25 33" fill="none" xmlns="http://www.w3.org/2000/svg">
<path d="M0.0999756 32.6839C0.0999756 25.8277 5.62646 20.2697 12.4437 20.2697C19.261 20.2697 24.7875 25.8277 24.7875 32.6839H21.7015C21.7015 27.5418 17.5567 23.3732 12.4437 23.3732C7.33077 23.3732 3.18591 27.5418 3.18591 32.6839H0.0999756ZM12.4437 18.7179C7.32878 18.7179 3.18591 14.5513 3.18591 9.40715C3.18591 4.26298 7.32878 0.0964355 12.4437 0.0964355C17.5587 0.0964355 21.7015 4.26298 21.7015 9.40715C21.7015 14.5513 17.5587 18.7179 12.4437 18.7179ZM12.4437 15.6143C15.8537 15.6143 18.6156 12.8366 18.6156 9.40715C18.6156 5.9777 15.8537 3.20001 12.4437 3.20001C9.03376 3.20001 6.27185 5.9777 6.27185 9.40715C6.27185 12.8366 9.03376 15.6143 12.4437 15.6143Z" fill="#F2EDDA"/>
</svg>
