<svg width="24" height="24" viewBox="0 0 24 24" fill="none" xmlns="http://www.w3.org/2000/svg">
<path d="M15.8793 14.1469C15.2943 13.5619 14.3459 13.5619 13.7609 14.1469C13.176 14.7318 13.176 15.6802 13.7609 16.2652L15.8793 14.1469ZM19.5528 22.057C20.1377 22.642 21.0862 22.642 21.6711 22.057C22.2561 21.4721 22.2561 20.5237 21.6711 19.9387L19.5528 22.057ZM9.99355 15.6387C7.08894 15.6387 4.73428 13.2841 4.73428 10.3795H1.7385C1.7385 14.9386 5.43441 18.6345 9.99355 18.6345V15.6387ZM15.2528 10.3795C15.2528 13.2841 12.8982 15.6387 9.99355 15.6387V18.6345C14.5527 18.6345 18.2486 14.9386 18.2486 10.3795H15.2528ZM9.99355 5.12021C12.8982 5.12021 15.2528 7.47486 15.2528 10.3795H18.2486C18.2486 5.82034 14.5527 2.12442 9.99355 2.12442V5.12021ZM9.99355 2.12442C5.43441 2.12442 1.7385 5.82034 1.7385 10.3795H4.73428C4.73428 7.47486 7.08894 5.12021 9.99355 5.12021V2.12442ZM13.7609 16.2652L19.5528 22.057L21.6711 19.9387L15.8793 14.1469L13.7609 16.2652Z" fill="#097D4C"/>
</svg>
