<svg width="578" height="39" viewBox="0 0 578 39" fill="none" xmlns="http://www.w3.org/2000/svg">
<rect x="1.48834" y="1.53488" width="575.59" height="36.3489" rx="18.1744" fill="white" stroke="#B6B6B6" stroke-width="1.19831"/>
<path d="M21.9529 21.3087C21.9529 21.123 21.9238 20.9592 21.8655 20.8172C21.8109 20.6716 21.7126 20.5405 21.5706 20.424C21.4323 20.3075 21.2393 20.1964 20.9918 20.0909C20.7478 19.9853 20.4384 19.8779 20.0634 19.7687C19.6702 19.6522 19.3152 19.5229 18.9985 19.3809C18.6817 19.2353 18.4105 19.0696 18.1848 18.884C17.9591 18.6983 17.7861 18.4853 17.666 18.245C17.5458 18.0047 17.4858 17.7299 17.4858 17.4204C17.4858 17.1109 17.5495 16.8251 17.6769 16.563C17.8043 16.3009 17.9864 16.0733 18.223 15.8804C18.4633 15.6838 18.7491 15.5309 19.0804 15.4217C19.4117 15.3124 19.7812 15.2578 20.189 15.2578C20.7861 15.2578 21.2921 15.3725 21.7072 15.6019C22.1259 15.8276 22.4444 16.1243 22.6629 16.492C22.8813 16.8561 22.9905 17.2456 22.9905 17.6607H21.942C21.942 17.3622 21.8783 17.0982 21.7509 16.8688C21.6234 16.6358 21.4305 16.4538 21.172 16.3227C20.9135 16.188 20.5858 16.1207 20.189 16.1207C19.814 16.1207 19.5045 16.1771 19.2606 16.29C19.0167 16.4028 18.8346 16.5557 18.7145 16.7487C18.598 16.9417 18.5397 17.1619 18.5397 17.4095C18.5397 17.577 18.5743 17.7299 18.6435 17.8682C18.7163 18.0029 18.8274 18.1285 18.9766 18.245C19.1295 18.3615 19.3225 18.4689 19.5555 18.5672C19.7922 18.6655 20.0743 18.7602 20.402 18.8512C20.8534 18.9786 21.243 19.1206 21.5706 19.2772C21.8983 19.4337 22.1677 19.6103 22.3789 19.8069C22.5937 19.9998 22.7521 20.2201 22.854 20.4677C22.9596 20.7116 23.0124 20.9883 23.0124 21.2978C23.0124 21.6218 22.9468 21.9149 22.8158 22.177C22.6847 22.4391 22.4972 22.663 22.2533 22.8487C22.0093 23.0344 21.7163 23.1782 21.374 23.2801C21.0355 23.3784 20.6568 23.4276 20.2381 23.4276C19.8704 23.4276 19.5082 23.3766 19.1514 23.2747C18.7982 23.1727 18.476 23.0198 18.1848 22.8159C17.8972 22.6121 17.666 22.3609 17.4912 22.0623C17.3201 21.7601 17.2346 21.4106 17.2346 21.0138H18.2831C18.2831 21.2868 18.3359 21.5217 18.4414 21.7183C18.547 21.9112 18.6908 22.0714 18.8729 22.1988C19.0585 22.3263 19.2679 22.4209 19.5009 22.4828C19.7375 22.5411 19.9833 22.5702 20.2381 22.5702C20.6059 22.5702 20.9171 22.5192 21.172 22.4173C21.4268 22.3153 21.6198 22.1697 21.7509 21.9804C21.8856 21.7911 21.9529 21.5672 21.9529 21.3087ZM26.6549 23.4276C26.2435 23.4276 25.8703 23.3584 25.5354 23.2201C25.2041 23.0781 24.9183 22.8797 24.678 22.6248C24.4413 22.37 24.2593 22.0678 24.1319 21.7183C24.0045 21.3688 23.9407 20.9865 23.9407 20.5714V20.3421C23.9407 19.8615 24.0117 19.4337 24.1537 19.0587C24.2957 18.6801 24.4887 18.3597 24.7326 18.0976C24.9765 17.8354 25.2532 17.637 25.5627 17.5023C25.8721 17.3676 26.1925 17.3003 26.5238 17.3003C26.9462 17.3003 27.3102 17.3731 27.616 17.5187C27.9255 17.6643 28.1785 17.8682 28.3751 18.1303C28.5717 18.3888 28.7174 18.6947 28.812 19.0478C28.9067 19.3973 28.954 19.7796 28.954 20.1946V20.6479H24.5415V19.8233H27.9437V19.7468C27.9291 19.4847 27.8745 19.2298 27.7799 18.9823C27.6889 18.7347 27.5432 18.5308 27.343 18.3706C27.1428 18.2104 26.8697 18.1303 26.5238 18.1303C26.2945 18.1303 26.0833 18.1795 25.8903 18.2778C25.6974 18.3725 25.5317 18.5144 25.3934 18.7038C25.255 18.8931 25.1476 19.1243 25.0712 19.3973C24.9947 19.6704 24.9565 19.9853 24.9565 20.3421V20.5714C24.9565 20.8518 24.9947 21.1157 25.0712 21.3633C25.1513 21.6072 25.266 21.822 25.4152 22.0077C25.5681 22.1934 25.752 22.339 25.9668 22.4446C26.1852 22.5502 26.4328 22.603 26.7095 22.603C27.0663 22.603 27.3685 22.5301 27.616 22.3845C27.8636 22.2389 28.0802 22.0441 28.2659 21.8002L28.8776 22.2862C28.7501 22.4792 28.5881 22.663 28.3915 22.8378C28.1949 23.0125 27.9528 23.1545 27.6652 23.2637C27.3812 23.373 27.0445 23.4276 26.6549 23.4276ZM33.6178 22.3081V19.2662C33.6178 19.0332 33.5704 18.8312 33.4758 18.6601C33.3848 18.4853 33.2464 18.3506 33.0607 18.2559C32.8751 18.1613 32.6457 18.114 32.3726 18.114C32.1178 18.114 31.8939 18.1576 31.7009 18.245C31.5116 18.3324 31.3623 18.4471 31.2531 18.5891C31.1475 18.7311 31.0947 18.884 31.0947 19.0478H30.0844C30.0844 18.8366 30.1391 18.6273 30.2483 18.4198C30.3575 18.2123 30.5141 18.0248 30.7179 17.8573C30.9255 17.6862 31.173 17.5515 31.4606 17.4532C31.7519 17.3512 32.0759 17.3003 32.4327 17.3003C32.8623 17.3003 33.2409 17.3731 33.5686 17.5187C33.8999 17.6643 34.1584 17.8846 34.3441 18.1795C34.5334 18.4707 34.6281 18.8366 34.6281 19.2772V22.0295C34.6281 22.2261 34.6444 22.4355 34.6772 22.6576C34.7136 22.8797 34.7664 23.0708 34.8356 23.231V23.3184H33.7816C33.7306 23.2019 33.6906 23.0471 33.6615 22.8542C33.6323 22.6576 33.6178 22.4755 33.6178 22.3081ZM33.7925 19.7359L33.8034 20.4458H32.7822C32.4946 20.4458 32.2379 20.4695 32.0122 20.5168C31.7865 20.5605 31.5972 20.6279 31.4443 20.7189C31.2913 20.8099 31.1748 20.9246 31.0947 21.0629C31.0147 21.1976 30.9746 21.356 30.9746 21.5381C30.9746 21.7237 31.0165 21.893 31.1002 22.0459C31.1839 22.1988 31.3095 22.3208 31.477 22.4118C31.6481 22.4992 31.8575 22.5429 32.105 22.5429C32.4145 22.5429 32.6876 22.4774 32.9242 22.3463C33.1609 22.2152 33.3483 22.055 33.4867 21.8657C33.6287 21.6764 33.7051 21.4925 33.7161 21.3141L34.1475 21.8002C34.122 21.9531 34.0528 22.1224 33.94 22.3081C33.8271 22.4937 33.676 22.6721 33.4867 22.8432C33.301 23.0107 33.0789 23.1509 32.8204 23.2637C32.5656 23.373 32.278 23.4276 31.9576 23.4276C31.5571 23.4276 31.2058 23.3493 30.9036 23.1928C30.6051 23.0362 30.3721 22.8269 30.2046 22.5647C30.0408 22.299 29.9588 22.0022 29.9588 21.6746C29.9588 21.3578 30.0207 21.0793 30.1445 20.839C30.2683 20.5951 30.4467 20.393 30.6797 20.2329C30.9127 20.069 31.193 19.9452 31.5207 19.8615C31.8484 19.7778 32.2143 19.7359 32.6184 19.7359H33.7925ZM37.2275 18.3379V23.3184H36.2172V17.4095H37.2002L37.2275 18.3379ZM39.0734 17.3767L39.0679 18.316C38.9842 18.2978 38.9041 18.2869 38.8276 18.2833C38.7548 18.276 38.6711 18.2723 38.5764 18.2723C38.3434 18.2723 38.1377 18.3087 37.9593 18.3816C37.7809 18.4544 37.6298 18.5563 37.506 18.6874C37.3823 18.8184 37.284 18.975 37.2111 19.157C37.142 19.3354 37.0965 19.532 37.0746 19.7468L36.7906 19.9107C36.7906 19.5539 36.8252 19.2189 36.8944 18.9058C36.9672 18.5927 37.0783 18.316 37.2275 18.0757C37.3768 17.8318 37.5661 17.6425 37.7955 17.5078C38.0285 17.3694 38.3052 17.3003 38.6256 17.3003C38.6984 17.3003 38.7821 17.3094 38.8768 17.3276C38.9714 17.3421 39.037 17.3585 39.0734 17.3767ZM42.2626 22.5975C42.5029 22.5975 42.725 22.5483 42.9289 22.45C43.1328 22.3518 43.3002 22.217 43.4313 22.0459C43.5624 21.8712 43.637 21.6728 43.6552 21.4507H44.6164C44.5982 21.8002 44.4798 22.126 44.2614 22.4282C44.0466 22.7267 43.7644 22.9689 43.4149 23.1545C43.0654 23.3366 42.6813 23.4276 42.2626 23.4276C41.8185 23.4276 41.4307 23.3493 41.0994 23.1928C40.7718 23.0362 40.4987 22.8214 40.2803 22.5483C40.0655 22.2753 39.9035 21.9622 39.7942 21.609C39.6887 21.2523 39.6359 20.8754 39.6359 20.4786V20.2492C39.6359 19.8524 39.6887 19.4774 39.7942 19.1243C39.9035 18.7675 40.0655 18.4525 40.2803 18.1795C40.4987 17.9064 40.7718 17.6916 41.0994 17.5351C41.4307 17.3785 41.8185 17.3003 42.2626 17.3003C42.725 17.3003 43.1291 17.3949 43.475 17.5842C43.8209 17.7699 44.0921 18.0248 44.2887 18.3488C44.4889 18.6692 44.5982 19.0332 44.6164 19.441H43.6552C43.637 19.1971 43.5678 18.9768 43.4477 18.7802C43.3312 18.5836 43.171 18.4271 42.9671 18.3106C42.7669 18.1904 42.532 18.1303 42.2626 18.1303C41.9532 18.1303 41.6929 18.1922 41.4817 18.316C41.2742 18.4362 41.1085 18.6 40.9847 18.8075C40.8646 19.0114 40.7772 19.2389 40.7226 19.4901C40.6716 19.7377 40.6462 19.9907 40.6462 20.2492V20.4786C40.6462 20.7371 40.6716 20.9919 40.7226 21.2432C40.7736 21.4944 40.8591 21.7219 40.9793 21.9258C41.1031 22.1297 41.2687 22.2935 41.4762 22.4173C41.6874 22.5374 41.9495 22.5975 42.2626 22.5975ZM46.7626 14.9302V23.3184H45.7523V14.9302H46.7626ZM46.5223 20.14L46.1018 20.1236C46.1054 19.7195 46.1655 19.3463 46.282 19.0041C46.3985 18.6582 46.5623 18.3579 46.7735 18.103C46.9846 17.8482 47.2358 17.6516 47.5271 17.5132C47.822 17.3713 48.1478 17.3003 48.5046 17.3003C48.7959 17.3003 49.058 17.3403 49.291 17.4204C49.524 17.4969 49.7225 17.6206 49.8863 17.7918C50.0538 17.9629 50.1812 18.185 50.2686 18.458C50.3559 18.7274 50.3996 19.0569 50.3996 19.4465V23.3184H49.3839V19.4355C49.3839 19.1261 49.3384 18.8785 49.2473 18.6928C49.1563 18.5035 49.0234 18.367 48.8487 18.2833C48.6739 18.1959 48.4591 18.1522 48.2043 18.1522C47.9531 18.1522 47.7237 18.205 47.5162 18.3106C47.3123 18.4161 47.1357 18.5618 46.9865 18.7474C46.8408 18.9331 46.7261 19.1461 46.6424 19.3864C46.5623 19.623 46.5223 19.8742 46.5223 20.14Z" fill="#B7B7B7"/>
<path d="M548.879 21.1469C548.294 20.5619 547.346 20.5619 546.761 21.1469C546.176 21.7318 546.176 22.6802 546.761 23.2652L548.879 21.1469ZM552.553 29.057C553.138 29.642 554.086 29.642 554.671 29.057C555.256 28.4721 555.256 27.5237 554.671 26.9387L552.553 29.057ZM542.994 22.6387C540.089 22.6387 537.734 20.2841 537.734 17.3795H534.738C534.738 21.9386 538.434 25.6345 542.994 25.6345V22.6387ZM548.253 17.3795C548.253 20.2841 545.898 22.6387 542.994 22.6387V25.6345C547.553 25.6345 551.249 21.9386 551.249 17.3795H548.253ZM542.994 12.1202C545.898 12.1202 548.253 14.4749 548.253 17.3795H551.249C551.249 12.8203 547.553 9.12442 542.994 9.12442V12.1202ZM542.994 9.12442C538.434 9.12442 534.738 12.8203 534.738 17.3795H537.734C537.734 14.4749 540.089 12.1202 542.994 12.1202V9.12442ZM546.761 23.2652L552.553 29.057L554.671 26.9387L548.879 21.1469L546.761 23.2652Z" fill="#097D4C"/>
</svg>
